<?xml version="1.0" encoding="UTF-8"?>
<!DOCTYPE svg PUBLIC "-//W3C//DTD SVG 1.1//EN" "http://www.w3.org/Graphics/SVG/1.1/DTD/svg11.dtd">
<svg xmlns="http://www.w3.org/2000/svg" version="1.1" width="1200px" height="1111px" style="shape-rendering:geometricPrecision; text-rendering:geometricPrecision; image-rendering:optimizeQuality; fill-rule:evenodd; clip-rule:evenodd" xmlns:xlink="http://www.w3.org/1999/xlink">
<g><path style="opacity:0.995" fill="#01acfb" d="M 983.5,30.5 C 1015.51,29.5562 1047.18,32.3895 1078.5,39C 1108.9,44.6133 1134.74,58.4466 1156,80.5C 1172.98,103.455 1172.64,126.122 1155,148.5C 1141.45,162.379 1125.95,173.546 1108.5,182C 1086.48,192.896 1063.81,202.229 1040.5,210C 1010.01,219.621 979.348,228.621 948.5,237C 894.56,250.588 840.56,263.921 786.5,277C 761.181,283.995 736.181,291.995 711.5,301C 694.274,308.175 681.441,320.009 673,336.5C 666.951,350.246 669.118,362.412 679.5,373C 709.176,387.827 737.176,405.161 763.5,425C 868.44,506.916 950.94,607.083 1011,725.5C 1042.54,787.011 1059.38,852.345 1061.5,921.5C 1061.45,951.319 1056.62,980.319 1047,1008.5C 1022.88,1066.15 980.043,1088.32 918.5,1075C 886.621,1066.23 857.621,1051.89 831.5,1032C 782.047,992.23 742.547,944.396 713,888.5C 676.291,819.409 650.625,746.409 636,669.5C 621.389,590.163 615.055,510.163 617,429.5C 613.551,423.389 608.385,419.556 601.5,418C 583.119,413.88 565.119,415.213 547.5,422C 538.554,425.806 529.888,430.139 521.5,435C 489.639,457.51 460.139,483.01 433,511.5C 392.077,555.743 353.411,601.743 317,649.5C 295.054,678.124 270.887,704.957 244.5,730C 203.213,765.489 155.879,777.489 102.5,766C 63.8011,753.288 40.6345,726.788 33,686.5C 25.9139,648.007 32.9139,612.34 54,579.5C 76.2969,546.866 103.13,518.366 134.5,494C 241.07,412.341 361.403,363.674 495.5,348C 534.822,343.989 573.988,345.156 613,351.5C 619.166,351.99 623.166,349.323 625,343.5C 636.755,260.156 672.255,188.99 731.5,130C 752.764,111.36 776.097,95.6929 801.5,83C 858.644,52.7197 919.311,35.2197 983.5,30.5 Z"/></g>
</svg>
